<svg width="120" height="34" viewBox="0 0 120 34" fill="none" xmlns="http://www.w3.org/2000/svg">
<path fill-rule="evenodd" clip-rule="evenodd" d="M61.6491 10.1222H62.6575C63.6201 10.1222 64.216 9.62941 64.216 8.68861C64.216 7.74781 63.6201 7.25501 62.6575 7.25501H61.6491V10.1222ZM63.2534 5.50781C65.2244 5.50781 66.5536 6.76221 66.5536 8.64381C66.5536 10.5254 65.1785 11.7798 63.1159 11.7798H61.6033V14.3782H59.2656V5.50781H63.2534Z" fill="#002930"/>
<path fill-rule="evenodd" clip-rule="evenodd" d="M69.8103 12.5862H70.9104C72.423 12.5862 73.2481 11.6902 73.2481 9.89821C73.2481 8.24061 72.3772 7.29981 70.9104 7.29981H69.8103V12.5862ZM71.1854 5.50781C73.9356 5.50781 75.5399 7.07581 75.5399 9.89821C75.5399 12.7206 73.9356 14.423 71.1854 14.423H67.4727V5.50781H71.1854Z" fill="#002930"/>
<path fill-rule="evenodd" clip-rule="evenodd" d="M78.7947 10.1222H79.8031C80.7657 10.1222 81.3615 9.62941 81.3615 8.68861C81.3615 7.74781 80.7657 7.25501 79.8031 7.25501H78.7947V10.1222ZM80.4448 5.50781C82.4158 5.50781 83.745 6.76221 83.745 8.64381C83.745 10.5254 82.3699 11.7798 80.3073 11.7798H78.7947V14.3782H76.457V5.50781H80.4448Z" fill="#002930"/>
<path fill-rule="evenodd" clip-rule="evenodd" d="M62.1526 24.3255H64.2152L63.2068 20.8759H63.161L62.1526 24.3255ZM64.6736 25.9831H61.6942L61.0983 27.9543H58.7148L61.7859 19.0391H64.6277L67.6988 27.9543H65.2236L64.6736 25.9831Z" fill="#002930"/>
<path fill-rule="evenodd" clip-rule="evenodd" d="M67.3789 23.4738C67.3789 20.5618 69.0749 18.8594 71.8251 18.8594C74.1169 18.8594 75.8587 20.293 75.9503 22.3986H73.7044C73.6127 21.3682 72.8335 20.6514 71.8251 20.6514C70.5416 20.6514 69.7624 21.7266 69.7624 23.429C69.7624 25.1762 70.5416 26.2514 71.8251 26.2514C72.8335 26.2514 73.5668 25.5794 73.7044 24.549H75.9503C75.8587 26.6546 74.1627 28.0434 71.8251 28.0434C69.0749 28.0882 67.3789 26.3858 67.3789 23.4738Z" fill="#002930"/>
<path fill-rule="evenodd" clip-rule="evenodd" d="M79.1135 24.3255H81.1762L80.1678 20.8759H80.1219L79.1135 24.3255ZM81.6345 25.9831H78.6552L78.0593 27.9543H75.6758L78.7468 19.0391H81.5887L84.6597 27.9543H82.1846L81.6345 25.9831Z" fill="#002930"/>
<path fill-rule="evenodd" clip-rule="evenodd" d="M87.5486 26.1175H88.6487C90.1613 26.1175 90.9864 25.2215 90.9864 23.4295C90.9864 21.7719 90.1155 20.8311 88.6487 20.8311H87.5486V26.1175ZM88.9237 19.0391C91.6739 19.0391 93.2782 20.6071 93.2782 23.4295C93.2782 26.2519 91.6739 27.9543 88.9237 27.9543H85.2109V19.0391H88.9237Z" fill="#002930"/>
<path fill-rule="evenodd" clip-rule="evenodd" d="M100.152 27.9095H93.918V19.0391H100.152V20.8759H96.2098V22.6679H99.9226V24.3255H96.2098V26.1175H100.152V27.9095Z" fill="#002930"/>
<path fill-rule="evenodd" clip-rule="evenodd" d="M108.816 27.9095V22.3543H108.771L106.525 27.9095H105.195L102.949 22.3543H102.904V27.9095H100.887V19.0391H103.545L105.837 24.8631H105.883L108.175 19.0391H110.833V27.9543H108.816V27.9095Z" fill="#002930"/>
<path fill-rule="evenodd" clip-rule="evenodd" d="M114.547 27.9095V24.8631L111.43 19.0391H113.905L115.738 22.7575H115.784L117.572 19.0391H120.001L116.884 24.8631V27.9095H114.547Z" fill="#002930"/>
<path fill-rule="evenodd" clip-rule="evenodd" d="M11.5508 5.50781C5.17953 5.50781 0 10.5702 0 16.7974C0 23.0246 5.17953 28.087 11.5508 28.087C17.9221 28.087 23.1016 23.0246 23.1016 16.7974C23.0558 10.5702 17.8762 5.50781 11.5508 5.50781Z" fill="#00B533"/>
<path fill-rule="evenodd" clip-rule="evenodd" d="M33.1867 33.6H26.082L34.4701 0H41.5748L33.1867 33.6Z" fill="#002930"/>
<path fill-rule="evenodd" clip-rule="evenodd" d="M43.4992 33.6H36.3945L44.7826 0H51.8873L43.4992 33.6Z" fill="#002930"/>
</svg>
