<svg width="20" height="20" viewBox="0 0 20 20" fill="none" xmlns="http://www.w3.org/2000/svg">
<path fill-rule="evenodd" clip-rule="evenodd" d="M10.667 2.49683C11.0187 2.49683 11.3326 2.71768 11.4515 3.04872L11.875 4.22838C11.9422 4.41389 12.0727 4.56975 12.2435 4.66856L13.4999 5.39387C13.6705 5.4923 13.8704 5.52715 14.0643 5.49224L15.2981 5.26965C15.6446 5.20665 15.9933 5.36815 16.1693 5.67315L16.8362 6.82363C17.0127 7.1278 16.9794 7.51002 16.7529 7.77903L15.9434 8.73609C15.8159 8.88659 15.7459 9.07741 15.7458 9.27465V10.7253C15.7459 10.9225 15.8159 11.1133 15.9434 11.2638L16.7529 12.2209C16.9794 12.4899 17.0127 12.8721 16.8362 13.1763L16.1693 14.3268C15.9934 14.6314 15.6451 14.7929 15.2989 14.7303L14.0651 14.5077C13.8712 14.4728 13.6713 14.5076 13.5007 14.606L12.2443 15.3313C12.0735 15.4302 11.9431 15.586 11.8758 15.7715L11.4523 16.9512C11.3333 17.2825 11.0191 17.5034 10.667 17.5031H9.33312C8.98138 17.5031 8.66751 17.2822 8.54862 16.9512L8.12511 15.7715C8.05791 15.5863 7.92779 15.4305 7.75746 15.3313L6.50027 14.606C6.32966 14.5076 6.12972 14.4728 5.93587 14.5077L4.70202 14.7303C4.35555 14.7933 4.00686 14.6318 3.83082 14.3268L3.16388 13.1763C2.98738 12.8721 3.02073 12.4899 3.24725 12.2209L4.05675 11.2638C4.18425 11.1133 4.25426 10.9225 4.25433 10.7253V9.27465C4.25426 9.07741 4.18425 8.88659 4.05675 8.73609L3.25558 7.77903C3.02907 7.51002 2.99572 7.1278 3.17222 6.82363L3.83916 5.67315C4.01508 5.36847 4.36333 5.20703 4.70952 5.26965L5.94337 5.49224C6.13722 5.52715 6.33717 5.4923 6.50777 5.39387L7.76496 4.66856C7.93529 4.56943 8.06541 4.41365 8.13262 4.22838L8.55613 3.04872C8.67407 2.72026 8.98413 2.50002 9.33312 2.49683H10.667Z" stroke="#B1B5C4" stroke-width="1.25" stroke-linecap="round" stroke-linejoin="round"/>
<circle cx="10.0001" cy="10" r="2.29262" stroke="#B1B5C4" stroke-width="1.25" stroke-linecap="round" stroke-linejoin="round"/>
</svg>
