<svg width="30" height="63" viewBox="0 0 30 63" fill="none" xmlns="http://www.w3.org/2000/svg">
<path fill-rule="evenodd" clip-rule="evenodd" d="M15 1.5C15 0.671573 14.3284 0 13.5 0C12.6716 0 12 0.671574 12 1.5V9.5191C12 14.0464 8.51162 17.7362 5.10915 20.7227C1.97712 23.4719 0 27.5051 0 32C0 36.6566 2.12189 40.8176 5.45154 43.5689C8.73981 46.286 12 49.7655 12 54.0311V61.5C12 62.3284 12.6716 63 13.5 63C14.3284 63 15 62.3284 15 61.5V55C15 50.5817 18.8243 47.1688 22.6269 44.919C27.0403 42.3079 30 37.4996 30 32C30 26.6793 27.2298 22.0057 23.053 19.3427C19.0946 16.819 15 13.1944 15 8.5V1.5Z" fill="#23262F"/>
</svg>
